<svg width="1920" height="1080" viewBox="0 0 1920 1080" fill="none" xmlns="http://www.w3.org/2000/svg">
<g id="bg-hero" clip-path="url(#clip0_14_6)">
<path id="bg-heroline4" d="M-60.2139 234.241C423.211 101.225 628.342 165.18 981.264 416.256C1278.22 627.514 1603.49 676.72 1968.46 588.785" stroke="url(#paint0_linear_14_6)"/>
<path id="bg-heroline3" d="M1516.33 476.434C1190.37 717.34 1022.26 712.792 698.116 579.886C425.382 468.058 171.729 507.145 -77.4549 677.947" stroke="url(#paint1_linear_14_6)" stroke-dasharray="4 4"/>
<g id="Vector 1109" filter="url(#filter0_f_14_6)">
<path d="M1263.92 160.262C1550.31 197.137 1885.24 349.368 1985.27 322.621C2164.35 274.733 1953.31 -182.63 1705.94 -277.624C1473.82 -366.762 231.739 -58.1709 647.109 143.87C868.093 251.359 1020.2 128.879 1263.92 160.262Z" fill="url(#paint2_linear_14_6)" fill-opacity="0.2"/>
</g>
<g id="Vector 1116" filter="url(#filter1_f_14_6)">
<path d="M214.712 986.09C-59.4838 895.575 -359.473 682.59 -462.753 689.884C-647.668 702.943 -527.188 1192.03 -302.324 1332.21C-91.3194 1463.75 1186.74 1396.3 817.225 1119.16C620.635 971.71 448.066 1063.12 214.712 986.09Z" fill="url(#paint3_linear_14_6)" fill-opacity="0.2"/>
</g>
<g id="Vector 2" filter="url(#filter2_f_14_6)">
<path d="M819.738 533.485C645.034 284.471 139.973 191.328 -90.7203 175.883C-179.598 266.726 -306.333 447.369 -102.248 443.194C101.838 439.019 -571.592 473.647 150.774 550.593C873.14 627.539 372.768 1003.93 907.378 1085.79C1441.99 1167.65 2066.31 923.839 2311.64 791.7C1887.13 809.384 994.441 782.498 819.738 533.485Z" fill="#53A5F0" fill-opacity="0.2"/>
</g>
<rect id="square5" x="1509.52" y="275" width="277.662" height="277.662" rx="2" transform="rotate(46.8342 1509.52 275)" fill="url(#paint4_linear_14_6)"/>
<path id="bg-heroline2" d="M-154.575 1152.9C180.882 913.567 356.844 906.453 698.966 1004.85C986.83 1087.65 1251.27 1035.41 1508.02 864.518" stroke="url(#paint5_linear_14_6)"/>
<path id="bg-heroline1" d="M1179.79 1022.63C1553.77 895.231 1657.18 761.983 1770.32 439.967C1865.52 169.02 2053.46 -7.93212 2330.07 -112.332" stroke="url(#paint6_linear_14_6)"/>
<rect id="square5_2" x="1061.08" y="1020.46" width="20.8711" height="20.8711" rx="2" transform="rotate(30.5887 1061.08 1020.46)" fill="url(#paint7_linear_14_6)"/>
<rect id="square5_3" x="561.881" y="205.303" width="20.8711" height="20.8711" rx="2" transform="rotate(-128.109 561.881 205.303)" fill="url(#paint8_linear_14_6)"/>
<rect id="square5_4" x="48.9174" y="1125.55" width="166.67" height="166.67" rx="2" transform="rotate(-140.668 48.9174 1125.55)" fill="url(#paint9_linear_14_6)"/>
<rect id="square5_5" x="1505.89" y="832.151" width="36.2204" height="36.7691" rx="2" transform="rotate(4.51095 1505.89 832.151)" fill="url(#paint10_linear_14_6)"/>
</g>
<defs>
<filter id="filter0_f_14_6" x="262.785" y="-593.405" width="2089.27" height="1219.16" filterUnits="userSpaceOnUse" color-interpolation-filters="sRGB">
<feFlood flood-opacity="0" result="BackgroundImageFix"/>
<feBlend mode="normal" in="SourceGraphic" in2="BackgroundImageFix" result="shape"/>
<feGaussianBlur stdDeviation="150" result="effect1_foregroundBlur_14_6"/>
</filter>
<filter id="filter1_f_14_6" x="-853.357" y="389.701" width="2037.22" height="1307.34" filterUnits="userSpaceOnUse" color-interpolation-filters="sRGB">
<feFlood flood-opacity="0" result="BackgroundImageFix"/>
<feBlend mode="normal" in="SourceGraphic" in2="BackgroundImageFix" result="shape"/>
<feGaussianBlur stdDeviation="150" result="effect1_foregroundBlur_14_6"/>
</filter>
<filter id="filter2_f_14_6" x="-511.962" y="-124.117" width="3123.6" height="1526.34" filterUnits="userSpaceOnUse" color-interpolation-filters="sRGB">
<feFlood flood-opacity="0" result="BackgroundImageFix"/>
<feBlend mode="normal" in="SourceGraphic" in2="BackgroundImageFix" result="shape"/>
<feGaussianBlur stdDeviation="150" result="effect1_foregroundBlur_14_6"/>
</filter>
<linearGradient id="paint0_linear_14_6" x1="1971.27" y1="572.709" x2="-57.4042" y2="218.164" gradientUnits="userSpaceOnUse">
<stop stop-color="#2D4CED"/>
<stop offset="1" stop-color="#53A5F0" stop-opacity="0"/>
</linearGradient>
<linearGradient id="paint1_linear_14_6" x1="-75.5621" y1="692.919" x2="1518.22" y2="491.406" gradientUnits="userSpaceOnUse">
<stop stop-color="#2D4CED"/>
<stop offset="1" stop-color="#53A5F0" stop-opacity="0"/>
</linearGradient>
<linearGradient id="paint2_linear_14_6" x1="846.377" y1="776.72" x2="1116.02" y2="-646.489" gradientUnits="userSpaceOnUse">
<stop stop-color="#2D4CED"/>
<stop offset="1" stop-color="#53A5F0" stop-opacity="0"/>
</linearGradient>
<linearGradient id="paint3_linear_14_6" x1="741.585" y1="460" x2="206.939" y2="1806.25" gradientUnits="userSpaceOnUse">
<stop stop-color="#2D4CED"/>
<stop offset="1" stop-color="#53A5F0" stop-opacity="0"/>
</linearGradient>
<linearGradient id="paint4_linear_14_6" x1="1787.18" y1="275" x2="1509.52" y2="552.662" gradientUnits="userSpaceOnUse">
<stop stop-color="#2D4CED"/>
<stop offset="1" stop-color="#53A5F0" stop-opacity="0"/>
</linearGradient>
<linearGradient id="paint5_linear_14_6" x1="1505.7" y1="851.123" x2="-156.899" y2="1139.51" gradientUnits="userSpaceOnUse">
<stop stop-color="#2D4CED"/>
<stop offset="1" stop-color="#53A5F0" stop-opacity="0"/>
</linearGradient>
<linearGradient id="paint6_linear_14_6" x1="2339.27" y1="-103.008" x2="1188.99" y2="1031.96" gradientUnits="userSpaceOnUse">
<stop stop-color="#2D4CED"/>
<stop offset="1" stop-color="#53A5F0" stop-opacity="0"/>
</linearGradient>
<linearGradient id="paint7_linear_14_6" x1="1081.95" y1="1020.46" x2="1061.08" y2="1041.33" gradientUnits="userSpaceOnUse">
<stop stop-color="#2D4CED"/>
<stop offset="1" stop-color="#53A5F0" stop-opacity="0"/>
</linearGradient>
<linearGradient id="paint8_linear_14_6" x1="582.752" y1="205.303" x2="561.881" y2="226.174" gradientUnits="userSpaceOnUse">
<stop stop-color="#2D4CED"/>
<stop offset="1" stop-color="#53A5F0" stop-opacity="0"/>
</linearGradient>
<linearGradient id="paint9_linear_14_6" x1="215.588" y1="1125.55" x2="48.9174" y2="1292.22" gradientUnits="userSpaceOnUse">
<stop stop-color="#2D4CED"/>
<stop offset="1" stop-color="#53A5F0" stop-opacity="0"/>
</linearGradient>
<linearGradient id="paint10_linear_14_6" x1="1542.11" y1="832.151" x2="1505.35" y2="868.368" gradientUnits="userSpaceOnUse">
<stop stop-color="#2D4CED"/>
<stop offset="1" stop-color="#53A5F0" stop-opacity="0"/>
</linearGradient>
<clipPath id="clip0_14_6">
<rect width="1920" height="1080" fill="white"/>
</clipPath>
</defs>
</svg>
